<mxfile host="app.diagrams.net" modified="2023-05-09T02:53:40.410Z" agent="Mozilla/5.0 (Windows NT 10.0; Win64; x64) AppleWebKit/537.36 (KHTML, like Gecko) Chrome/112.0.0.0 Safari/537.36" etag="E1v4ixRuHYBiUXzwgsja" version="21.2.9" type="device">
  <diagram name="Página-1" id="mmPX26ULnHtiXkFnU_QO">
    <mxGraphModel dx="989" dy="572" grid="0" gridSize="10" guides="0" tooltips="1" connect="1" arrows="1" fold="1" page="1" pageScale="1" pageWidth="827" pageHeight="1169" math="0" shadow="0">
      <root>
        <mxCell id="0" />
        <mxCell id="1" parent="0" />
        <mxCell id="DV5UVApOX6wPqdvzMXC9-51" style="edgeStyle=none;rounded=0;orthogonalLoop=1;jettySize=auto;html=1;exitX=0.75;exitY=0;exitDx=0;exitDy=0;entryX=0.339;entryY=0.968;entryDx=0;entryDy=0;entryPerimeter=0;endArrow=none;endFill=0;fillColor=#f5f5f5;strokeColor=#666666;" edge="1" parent="1" source="DV5UVApOX6wPqdvzMXC9-3" target="DV5UVApOX6wPqdvzMXC9-50">
          <mxGeometry relative="1" as="geometry" />
        </mxCell>
        <mxCell id="DV5UVApOX6wPqdvzMXC9-52" style="edgeStyle=none;rounded=0;orthogonalLoop=1;jettySize=auto;html=1;exitX=0.25;exitY=0;exitDx=0;exitDy=0;entryX=0.666;entryY=0.968;entryDx=0;entryDy=0;entryPerimeter=0;endArrow=none;endFill=0;fillColor=#f5f5f5;strokeColor=#666666;" edge="1" parent="1" source="DV5UVApOX6wPqdvzMXC9-3" target="DV5UVApOX6wPqdvzMXC9-49">
          <mxGeometry relative="1" as="geometry" />
        </mxCell>
        <mxCell id="DV5UVApOX6wPqdvzMXC9-3" value="Vehículo" style="whiteSpace=wrap;html=1;align=center;fillColor=#f5f5f5;fontColor=#333333;strokeColor=#666666;" vertex="1" parent="1">
          <mxGeometry x="196" y="102" width="60" height="30" as="geometry" />
        </mxCell>
        <mxCell id="DV5UVApOX6wPqdvzMXC9-45" style="edgeStyle=none;rounded=0;orthogonalLoop=1;jettySize=auto;html=1;exitX=0.25;exitY=0;exitDx=0;exitDy=0;entryX=0.718;entryY=0.979;entryDx=0;entryDy=0;entryPerimeter=0;endArrow=none;endFill=0;fillColor=#d5e8d4;strokeColor=#82b366;" edge="1" parent="1" source="DV5UVApOX6wPqdvzMXC9-4" target="DV5UVApOX6wPqdvzMXC9-38">
          <mxGeometry relative="1" as="geometry" />
        </mxCell>
        <mxCell id="DV5UVApOX6wPqdvzMXC9-46" style="edgeStyle=none;rounded=0;orthogonalLoop=1;jettySize=auto;html=1;exitX=0;exitY=0;exitDx=0;exitDy=0;entryX=1;entryY=1;entryDx=0;entryDy=0;endArrow=none;endFill=0;fillColor=#d5e8d4;strokeColor=#82b366;" edge="1" parent="1" source="DV5UVApOX6wPqdvzMXC9-4" target="DV5UVApOX6wPqdvzMXC9-42">
          <mxGeometry relative="1" as="geometry" />
        </mxCell>
        <mxCell id="DV5UVApOX6wPqdvzMXC9-47" style="edgeStyle=none;rounded=0;orthogonalLoop=1;jettySize=auto;html=1;exitX=0;exitY=0.5;exitDx=0;exitDy=0;entryX=0.988;entryY=0.669;entryDx=0;entryDy=0;entryPerimeter=0;endArrow=none;endFill=0;fillColor=#d5e8d4;strokeColor=#82b366;" edge="1" parent="1" source="DV5UVApOX6wPqdvzMXC9-4" target="DV5UVApOX6wPqdvzMXC9-43">
          <mxGeometry relative="1" as="geometry" />
        </mxCell>
        <mxCell id="DV5UVApOX6wPqdvzMXC9-4" value="Bici" style="whiteSpace=wrap;html=1;align=center;fillColor=#d5e8d4;strokeColor=#82b366;" vertex="1" parent="1">
          <mxGeometry x="86" y="182" width="60" height="30" as="geometry" />
        </mxCell>
        <mxCell id="DV5UVApOX6wPqdvzMXC9-12" style="edgeStyle=orthogonalEdgeStyle;rounded=0;orthogonalLoop=1;jettySize=auto;html=1;exitX=0.5;exitY=0;exitDx=0;exitDy=0;entryX=0.5;entryY=1;entryDx=0;entryDy=0;" edge="1" parent="1" source="DV5UVApOX6wPqdvzMXC9-5" target="DV5UVApOX6wPqdvzMXC9-3">
          <mxGeometry relative="1" as="geometry" />
        </mxCell>
        <mxCell id="DV5UVApOX6wPqdvzMXC9-57" style="edgeStyle=none;rounded=0;orthogonalLoop=1;jettySize=auto;html=1;exitX=0.75;exitY=1;exitDx=0;exitDy=0;entryX=0;entryY=0;entryDx=0;entryDy=0;endArrow=none;endFill=0;fillColor=#fff2cc;strokeColor=#d6b656;" edge="1" parent="1" source="DV5UVApOX6wPqdvzMXC9-5" target="DV5UVApOX6wPqdvzMXC9-54">
          <mxGeometry relative="1" as="geometry" />
        </mxCell>
        <mxCell id="DV5UVApOX6wPqdvzMXC9-58" style="edgeStyle=none;rounded=0;orthogonalLoop=1;jettySize=auto;html=1;exitX=0.75;exitY=1;exitDx=0;exitDy=0;entryX=0.218;entryY=0.131;entryDx=0;entryDy=0;entryPerimeter=0;endArrow=none;endFill=0;fillColor=#fff2cc;strokeColor=#d6b656;" edge="1" parent="1" source="DV5UVApOX6wPqdvzMXC9-5" target="DV5UVApOX6wPqdvzMXC9-56">
          <mxGeometry relative="1" as="geometry" />
        </mxCell>
        <mxCell id="DV5UVApOX6wPqdvzMXC9-59" style="edgeStyle=none;rounded=0;orthogonalLoop=1;jettySize=auto;html=1;exitX=0.25;exitY=1;exitDx=0;exitDy=0;entryX=1;entryY=0;entryDx=0;entryDy=0;endArrow=none;endFill=0;fillColor=#fff2cc;strokeColor=#d6b656;" edge="1" parent="1" source="DV5UVApOX6wPqdvzMXC9-5" target="DV5UVApOX6wPqdvzMXC9-53">
          <mxGeometry relative="1" as="geometry" />
        </mxCell>
        <mxCell id="DV5UVApOX6wPqdvzMXC9-5" value="Moto" style="whiteSpace=wrap;html=1;align=center;fillColor=#fff2cc;strokeColor=#d6b656;" vertex="1" parent="1">
          <mxGeometry x="196" y="182" width="60" height="30" as="geometry" />
        </mxCell>
        <mxCell id="DV5UVApOX6wPqdvzMXC9-14" style="edgeStyle=orthogonalEdgeStyle;rounded=0;orthogonalLoop=1;jettySize=auto;html=1;entryX=0.5;entryY=1;entryDx=0;entryDy=0;" edge="1" parent="1" source="DV5UVApOX6wPqdvzMXC9-6" target="DV5UVApOX6wPqdvzMXC9-3">
          <mxGeometry relative="1" as="geometry">
            <Array as="points">
              <mxPoint x="346" y="162" />
              <mxPoint x="226" y="162" />
            </Array>
          </mxGeometry>
        </mxCell>
        <mxCell id="DV5UVApOX6wPqdvzMXC9-63" style="edgeStyle=none;rounded=0;orthogonalLoop=1;jettySize=auto;html=1;exitX=0.75;exitY=0;exitDx=0;exitDy=0;entryX=0;entryY=0.5;entryDx=0;entryDy=0;endArrow=none;endFill=0;fillColor=#dae8fc;strokeColor=#6c8ebf;" edge="1" parent="1" source="DV5UVApOX6wPqdvzMXC9-6" target="DV5UVApOX6wPqdvzMXC9-61">
          <mxGeometry relative="1" as="geometry" />
        </mxCell>
        <mxCell id="DV5UVApOX6wPqdvzMXC9-64" style="edgeStyle=none;rounded=0;orthogonalLoop=1;jettySize=auto;html=1;exitX=1;exitY=0.5;exitDx=0;exitDy=0;entryX=0.022;entryY=0.372;entryDx=0;entryDy=0;entryPerimeter=0;endArrow=none;endFill=0;fillColor=#dae8fc;strokeColor=#6c8ebf;" edge="1" parent="1" source="DV5UVApOX6wPqdvzMXC9-6" target="DV5UVApOX6wPqdvzMXC9-62">
          <mxGeometry relative="1" as="geometry" />
        </mxCell>
        <mxCell id="DV5UVApOX6wPqdvzMXC9-6" value="Monopatín" style="whiteSpace=wrap;html=1;align=center;fillColor=#dae8fc;strokeColor=#6c8ebf;" vertex="1" parent="1">
          <mxGeometry x="316" y="182" width="60" height="30" as="geometry" />
        </mxCell>
        <mxCell id="DV5UVApOX6wPqdvzMXC9-71" style="edgeStyle=none;rounded=0;orthogonalLoop=1;jettySize=auto;html=1;exitX=0;exitY=0.5;exitDx=0;exitDy=0;entryX=1;entryY=0.5;entryDx=0;entryDy=0;endArrow=none;endFill=0;fillColor=#ffe6cc;strokeColor=#d79b00;" edge="1" parent="1" source="DV5UVApOX6wPqdvzMXC9-8" target="DV5UVApOX6wPqdvzMXC9-65">
          <mxGeometry relative="1" as="geometry" />
        </mxCell>
        <mxCell id="DV5UVApOX6wPqdvzMXC9-72" style="edgeStyle=none;rounded=0;orthogonalLoop=1;jettySize=auto;html=1;exitX=0;exitY=0.75;exitDx=0;exitDy=0;entryX=0.936;entryY=0.313;entryDx=0;entryDy=0;entryPerimeter=0;endArrow=none;endFill=0;fillColor=#ffe6cc;strokeColor=#d79b00;" edge="1" parent="1" source="DV5UVApOX6wPqdvzMXC9-8" target="DV5UVApOX6wPqdvzMXC9-66">
          <mxGeometry relative="1" as="geometry" />
        </mxCell>
        <mxCell id="DV5UVApOX6wPqdvzMXC9-73" style="edgeStyle=none;rounded=0;orthogonalLoop=1;jettySize=auto;html=1;exitX=0.25;exitY=1;exitDx=0;exitDy=0;entryX=0.735;entryY=0.002;entryDx=0;entryDy=0;entryPerimeter=0;endArrow=none;endFill=0;fillColor=#ffe6cc;strokeColor=#d79b00;" edge="1" parent="1" source="DV5UVApOX6wPqdvzMXC9-8" target="DV5UVApOX6wPqdvzMXC9-67">
          <mxGeometry relative="1" as="geometry" />
        </mxCell>
        <mxCell id="DV5UVApOX6wPqdvzMXC9-74" style="edgeStyle=none;rounded=0;orthogonalLoop=1;jettySize=auto;html=1;exitX=0.5;exitY=1;exitDx=0;exitDy=0;entryX=0.5;entryY=0;entryDx=0;entryDy=0;endArrow=none;endFill=0;fillColor=#ffe6cc;strokeColor=#d79b00;" edge="1" parent="1" source="DV5UVApOX6wPqdvzMXC9-8" target="DV5UVApOX6wPqdvzMXC9-68">
          <mxGeometry relative="1" as="geometry" />
        </mxCell>
        <mxCell id="DV5UVApOX6wPqdvzMXC9-75" style="edgeStyle=none;rounded=0;orthogonalLoop=1;jettySize=auto;html=1;exitX=0.75;exitY=1;exitDx=0;exitDy=0;entryX=0.264;entryY=0.077;entryDx=0;entryDy=0;entryPerimeter=0;endArrow=none;endFill=0;fillColor=#ffe6cc;strokeColor=#d79b00;" edge="1" parent="1" source="DV5UVApOX6wPqdvzMXC9-8" target="DV5UVApOX6wPqdvzMXC9-69">
          <mxGeometry relative="1" as="geometry" />
        </mxCell>
        <mxCell id="DV5UVApOX6wPqdvzMXC9-8" value="Estación" style="whiteSpace=wrap;html=1;align=center;fillColor=#ffe6cc;strokeColor=#d79b00;" vertex="1" parent="1">
          <mxGeometry x="196" y="370" width="60" height="30" as="geometry" />
        </mxCell>
        <mxCell id="DV5UVApOX6wPqdvzMXC9-82" style="edgeStyle=none;rounded=0;orthogonalLoop=1;jettySize=auto;html=1;exitX=0.25;exitY=0;exitDx=0;exitDy=0;entryX=0.729;entryY=1.016;entryDx=0;entryDy=0;entryPerimeter=0;endArrow=none;endFill=0;fillColor=#d5e8d4;strokeColor=#82b366;" edge="1" parent="1" source="DV5UVApOX6wPqdvzMXC9-9" target="DV5UVApOX6wPqdvzMXC9-76">
          <mxGeometry relative="1" as="geometry" />
        </mxCell>
        <mxCell id="DV5UVApOX6wPqdvzMXC9-83" style="edgeStyle=none;rounded=0;orthogonalLoop=1;jettySize=auto;html=1;exitX=0.75;exitY=0;exitDx=0;exitDy=0;entryX=0;entryY=1;entryDx=0;entryDy=0;endArrow=none;endFill=0;fillColor=#d5e8d4;strokeColor=#82b366;" edge="1" parent="1" source="DV5UVApOX6wPqdvzMXC9-9" target="DV5UVApOX6wPqdvzMXC9-77">
          <mxGeometry relative="1" as="geometry" />
        </mxCell>
        <mxCell id="DV5UVApOX6wPqdvzMXC9-9" value="Persona" style="whiteSpace=wrap;html=1;align=center;fillColor=#d5e8d4;strokeColor=#82b366;" vertex="1" parent="1">
          <mxGeometry x="540" y="130" width="60" height="30" as="geometry" />
        </mxCell>
        <mxCell id="DV5UVApOX6wPqdvzMXC9-11" style="edgeStyle=orthogonalEdgeStyle;rounded=0;orthogonalLoop=1;jettySize=auto;html=1;entryX=0.5;entryY=1;entryDx=0;entryDy=0;fillColor=#d5e8d4;strokeColor=#82b366;" edge="1" parent="1" source="DV5UVApOX6wPqdvzMXC9-10" target="DV5UVApOX6wPqdvzMXC9-9">
          <mxGeometry relative="1" as="geometry" />
        </mxCell>
        <mxCell id="DV5UVApOX6wPqdvzMXC9-20" value="1" style="edgeStyle=none;rounded=0;orthogonalLoop=1;jettySize=auto;html=1;exitX=0.5;exitY=1;exitDx=0;exitDy=0;entryX=0.5;entryY=0;entryDx=0;entryDy=0;endArrow=none;endFill=0;fillColor=#d5e8d4;strokeColor=#82b366;" edge="1" parent="1" source="DV5UVApOX6wPqdvzMXC9-10" target="DV5UVApOX6wPqdvzMXC9-18">
          <mxGeometry x="-0.6" relative="1" as="geometry">
            <mxPoint as="offset" />
          </mxGeometry>
        </mxCell>
        <mxCell id="DV5UVApOX6wPqdvzMXC9-84" style="edgeStyle=none;rounded=0;orthogonalLoop=1;jettySize=auto;html=1;exitX=1;exitY=0;exitDx=0;exitDy=0;entryX=0.011;entryY=0.683;entryDx=0;entryDy=0;entryPerimeter=0;endArrow=none;endFill=0;fillColor=#d5e8d4;strokeColor=#82b366;" edge="1" parent="1" source="DV5UVApOX6wPqdvzMXC9-10" target="DV5UVApOX6wPqdvzMXC9-79">
          <mxGeometry relative="1" as="geometry" />
        </mxCell>
        <mxCell id="DV5UVApOX6wPqdvzMXC9-85" style="edgeStyle=none;rounded=0;orthogonalLoop=1;jettySize=auto;html=1;exitX=1;exitY=0.25;exitDx=0;exitDy=0;entryX=0;entryY=0.5;entryDx=0;entryDy=0;endArrow=none;endFill=0;fillColor=#d5e8d4;strokeColor=#82b366;" edge="1" parent="1" source="DV5UVApOX6wPqdvzMXC9-10" target="DV5UVApOX6wPqdvzMXC9-81">
          <mxGeometry relative="1" as="geometry" />
        </mxCell>
        <mxCell id="DV5UVApOX6wPqdvzMXC9-86" style="edgeStyle=none;rounded=0;orthogonalLoop=1;jettySize=auto;html=1;exitX=1;exitY=0.5;exitDx=0;exitDy=0;entryX=0.028;entryY=0.28;entryDx=0;entryDy=0;entryPerimeter=0;endArrow=none;endFill=0;fillColor=#d5e8d4;strokeColor=#82b366;" edge="1" parent="1" source="DV5UVApOX6wPqdvzMXC9-10" target="DV5UVApOX6wPqdvzMXC9-80">
          <mxGeometry relative="1" as="geometry" />
        </mxCell>
        <mxCell id="DV5UVApOX6wPqdvzMXC9-10" value="Cliente" style="whiteSpace=wrap;html=1;align=center;fillColor=#d5e8d4;strokeColor=#82b366;" vertex="1" parent="1">
          <mxGeometry x="540" y="200" width="60" height="30" as="geometry" />
        </mxCell>
        <mxCell id="DV5UVApOX6wPqdvzMXC9-94" style="edgeStyle=none;rounded=0;orthogonalLoop=1;jettySize=auto;html=1;exitX=1;exitY=0;exitDx=0;exitDy=0;entryX=0;entryY=1;entryDx=0;entryDy=0;endArrow=none;endFill=0;fillColor=#f8cecc;strokeColor=#b85450;" edge="1" parent="1" source="DV5UVApOX6wPqdvzMXC9-16" target="DV5UVApOX6wPqdvzMXC9-88">
          <mxGeometry relative="1" as="geometry" />
        </mxCell>
        <mxCell id="DV5UVApOX6wPqdvzMXC9-95" style="edgeStyle=none;rounded=0;orthogonalLoop=1;jettySize=auto;html=1;exitX=1;exitY=0.25;exitDx=0;exitDy=0;entryX=0.024;entryY=0.669;entryDx=0;entryDy=0;entryPerimeter=0;endArrow=none;endFill=0;fillColor=#f8cecc;strokeColor=#b85450;" edge="1" parent="1" source="DV5UVApOX6wPqdvzMXC9-16" target="DV5UVApOX6wPqdvzMXC9-89">
          <mxGeometry relative="1" as="geometry" />
        </mxCell>
        <mxCell id="DV5UVApOX6wPqdvzMXC9-108" style="edgeStyle=none;rounded=0;orthogonalLoop=1;jettySize=auto;html=1;exitX=0.75;exitY=0;exitDx=0;exitDy=0;entryX=0;entryY=1;entryDx=0;entryDy=0;endArrow=none;endFill=0;fillColor=#f8cecc;strokeColor=#b85450;" edge="1" parent="1" source="DV5UVApOX6wPqdvzMXC9-16" target="DV5UVApOX6wPqdvzMXC9-107">
          <mxGeometry relative="1" as="geometry" />
        </mxCell>
        <mxCell id="DV5UVApOX6wPqdvzMXC9-110" value="1" style="edgeStyle=none;rounded=0;orthogonalLoop=1;jettySize=auto;html=1;exitX=0;exitY=0.75;exitDx=0;exitDy=0;entryX=1;entryY=0.5;entryDx=0;entryDy=0;endArrow=none;endFill=0;" edge="1" parent="1" source="DV5UVApOX6wPqdvzMXC9-16" target="DV5UVApOX6wPqdvzMXC9-109">
          <mxGeometry x="-0.4943" y="2" relative="1" as="geometry">
            <mxPoint as="offset" />
          </mxGeometry>
        </mxCell>
        <mxCell id="DV5UVApOX6wPqdvzMXC9-119" style="edgeStyle=none;rounded=0;orthogonalLoop=1;jettySize=auto;html=1;exitX=1;exitY=1;exitDx=0;exitDy=0;entryX=0;entryY=0;entryDx=0;entryDy=0;endArrow=none;endFill=0;fillColor=#f8cecc;strokeColor=#b85450;" edge="1" parent="1" source="DV5UVApOX6wPqdvzMXC9-16" target="DV5UVApOX6wPqdvzMXC9-118">
          <mxGeometry relative="1" as="geometry" />
        </mxCell>
        <mxCell id="DV5UVApOX6wPqdvzMXC9-16" value="Viaje" style="whiteSpace=wrap;html=1;align=center;fillColor=#f8cecc;strokeColor=#b85450;" vertex="1" parent="1">
          <mxGeometry x="540" y="370" width="60" height="30" as="geometry" />
        </mxCell>
        <mxCell id="DV5UVApOX6wPqdvzMXC9-17" value="Tiempo" style="whiteSpace=wrap;html=1;align=center;fillColor=#e1d5e7;strokeColor=#9673a6;" vertex="1" parent="1">
          <mxGeometry x="515" y="507" width="60" height="30" as="geometry" />
        </mxCell>
        <mxCell id="DV5UVApOX6wPqdvzMXC9-21" value="n" style="edgeStyle=none;rounded=0;orthogonalLoop=1;jettySize=auto;html=1;exitX=0.5;exitY=1;exitDx=0;exitDy=0;entryX=0.5;entryY=0;entryDx=0;entryDy=0;endArrow=none;endFill=0;fillColor=#f8cecc;strokeColor=#b85450;" edge="1" parent="1" source="DV5UVApOX6wPqdvzMXC9-18" target="DV5UVApOX6wPqdvzMXC9-16">
          <mxGeometry x="0.6" relative="1" as="geometry">
            <mxPoint as="offset" />
          </mxGeometry>
        </mxCell>
        <mxCell id="DV5UVApOX6wPqdvzMXC9-18" value="realiza" style="shape=rhombus;perimeter=rhombusPerimeter;whiteSpace=wrap;html=1;align=center;" vertex="1" parent="1">
          <mxGeometry x="535" y="280" width="70" height="40" as="geometry" />
        </mxCell>
        <mxCell id="DV5UVApOX6wPqdvzMXC9-27" value="n" style="edgeStyle=none;rounded=0;orthogonalLoop=1;jettySize=auto;html=1;exitX=0.5;exitY=0;exitDx=0;exitDy=0;entryX=0.5;entryY=1;entryDx=0;entryDy=0;endArrow=none;endFill=0;" edge="1" parent="1" source="DV5UVApOX6wPqdvzMXC9-23" target="DV5UVApOX6wPqdvzMXC9-4">
          <mxGeometry x="0.5" relative="1" as="geometry">
            <mxPoint as="offset" />
          </mxGeometry>
        </mxCell>
        <mxCell id="DV5UVApOX6wPqdvzMXC9-31" value="1" style="edgeStyle=none;rounded=0;orthogonalLoop=1;jettySize=auto;html=1;exitX=0.5;exitY=1;exitDx=0;exitDy=0;endArrow=none;endFill=0;entryX=0.5;entryY=0;entryDx=0;entryDy=0;" edge="1" parent="1" source="DV5UVApOX6wPqdvzMXC9-23" target="DV5UVApOX6wPqdvzMXC9-8">
          <mxGeometry x="0.5548" y="-1" relative="1" as="geometry">
            <mxPoint x="161" y="339.9999999999999" as="targetPoint" />
            <mxPoint as="offset" />
          </mxGeometry>
        </mxCell>
        <mxCell id="DV5UVApOX6wPqdvzMXC9-23" value="tiene" style="shape=rhombus;perimeter=rhombusPerimeter;whiteSpace=wrap;html=1;align=center;" vertex="1" parent="1">
          <mxGeometry x="81" y="280" width="70" height="40" as="geometry" />
        </mxCell>
        <mxCell id="DV5UVApOX6wPqdvzMXC9-26" value="n" style="edgeStyle=none;rounded=0;orthogonalLoop=1;jettySize=auto;html=1;exitX=0.5;exitY=0;exitDx=0;exitDy=0;entryX=0.5;entryY=1;entryDx=0;entryDy=0;endArrow=none;endFill=0;fillColor=#fff2cc;strokeColor=#d6b656;" edge="1" parent="1" source="DV5UVApOX6wPqdvzMXC9-24" target="DV5UVApOX6wPqdvzMXC9-5">
          <mxGeometry x="0.5" relative="1" as="geometry">
            <mxPoint as="offset" />
          </mxGeometry>
        </mxCell>
        <mxCell id="DV5UVApOX6wPqdvzMXC9-30" value="1" style="edgeStyle=none;rounded=0;orthogonalLoop=1;jettySize=auto;html=1;exitX=0.5;exitY=1;exitDx=0;exitDy=0;endArrow=none;endFill=0;" edge="1" parent="1" source="DV5UVApOX6wPqdvzMXC9-24">
          <mxGeometry x="0.2" relative="1" as="geometry">
            <mxPoint x="226.24137931034488" y="369.9999999999999" as="targetPoint" />
            <mxPoint as="offset" />
          </mxGeometry>
        </mxCell>
        <mxCell id="DV5UVApOX6wPqdvzMXC9-24" value="tiene" style="shape=rhombus;perimeter=rhombusPerimeter;whiteSpace=wrap;html=1;align=center;" vertex="1" parent="1">
          <mxGeometry x="191" y="280" width="70" height="40" as="geometry" />
        </mxCell>
        <mxCell id="DV5UVApOX6wPqdvzMXC9-28" value="n" style="edgeStyle=none;rounded=0;orthogonalLoop=1;jettySize=auto;html=1;exitX=0.5;exitY=0;exitDx=0;exitDy=0;entryX=0.5;entryY=1;entryDx=0;entryDy=0;endArrow=none;endFill=0;" edge="1" parent="1" source="DV5UVApOX6wPqdvzMXC9-25" target="DV5UVApOX6wPqdvzMXC9-6">
          <mxGeometry x="0.5" relative="1" as="geometry">
            <mxPoint as="offset" />
          </mxGeometry>
        </mxCell>
        <mxCell id="DV5UVApOX6wPqdvzMXC9-29" value="1" style="edgeStyle=none;rounded=0;orthogonalLoop=1;jettySize=auto;html=1;exitX=0.5;exitY=1;exitDx=0;exitDy=0;entryX=0.5;entryY=0;entryDx=0;entryDy=0;endArrow=none;endFill=0;" edge="1" parent="1" source="DV5UVApOX6wPqdvzMXC9-25" target="DV5UVApOX6wPqdvzMXC9-8">
          <mxGeometry x="0.5858" relative="1" as="geometry">
            <mxPoint as="offset" />
          </mxGeometry>
        </mxCell>
        <mxCell id="DV5UVApOX6wPqdvzMXC9-25" value="tiene" style="shape=rhombus;perimeter=rhombusPerimeter;whiteSpace=wrap;html=1;align=center;" vertex="1" parent="1">
          <mxGeometry x="311" y="280" width="70" height="40" as="geometry" />
        </mxCell>
        <mxCell id="DV5UVApOX6wPqdvzMXC9-33" value="1" style="edgeStyle=none;rounded=0;orthogonalLoop=1;jettySize=auto;html=1;exitX=1;exitY=0.5;exitDx=0;exitDy=0;entryX=0;entryY=0.25;entryDx=0;entryDy=0;endArrow=none;endFill=0;" edge="1" parent="1" source="DV5UVApOX6wPqdvzMXC9-32" target="DV5UVApOX6wPqdvzMXC9-16">
          <mxGeometry x="0.6667" relative="1" as="geometry">
            <Array as="points" />
            <mxPoint as="offset" />
          </mxGeometry>
        </mxCell>
        <mxCell id="DV5UVApOX6wPqdvzMXC9-34" value="1" style="edgeStyle=none;rounded=0;orthogonalLoop=1;jettySize=auto;html=1;exitX=0;exitY=0.5;exitDx=0;exitDy=0;entryX=1;entryY=0.25;entryDx=0;entryDy=0;endArrow=none;endFill=0;" edge="1" parent="1" source="DV5UVApOX6wPqdvzMXC9-32" target="DV5UVApOX6wPqdvzMXC9-8">
          <mxGeometry x="0.6296" relative="1" as="geometry">
            <mxPoint as="offset" />
          </mxGeometry>
        </mxCell>
        <mxCell id="DV5UVApOX6wPqdvzMXC9-32" value="asociado" style="shape=rhombus;perimeter=rhombusPerimeter;whiteSpace=wrap;html=1;align=center;" vertex="1" parent="1">
          <mxGeometry x="391" y="340" width="70" height="40" as="geometry" />
        </mxCell>
        <mxCell id="DV5UVApOX6wPqdvzMXC9-36" value="1" style="edgeStyle=orthogonalEdgeStyle;rounded=0;orthogonalLoop=1;jettySize=auto;html=1;endArrow=none;endFill=0;exitX=0.5;exitY=0;exitDx=0;exitDy=0;fillColor=#f8cecc;strokeColor=#b85450;" edge="1" parent="1" source="DV5UVApOX6wPqdvzMXC9-35">
          <mxGeometry x="0.3333" relative="1" as="geometry">
            <mxPoint x="545" y="400" as="targetPoint" />
            <Array as="points">
              <mxPoint x="545" y="440" />
              <mxPoint x="545" y="440" />
            </Array>
            <mxPoint as="offset" />
          </mxGeometry>
        </mxCell>
        <mxCell id="DV5UVApOX6wPqdvzMXC9-37" value="1" style="edgeStyle=none;rounded=0;orthogonalLoop=1;jettySize=auto;html=1;exitX=0.5;exitY=1;exitDx=0;exitDy=0;entryX=0.5;entryY=0;entryDx=0;entryDy=0;endArrow=none;endFill=0;" edge="1" parent="1" source="DV5UVApOX6wPqdvzMXC9-35" target="DV5UVApOX6wPqdvzMXC9-17">
          <mxGeometry x="0.3333" relative="1" as="geometry">
            <mxPoint as="offset" />
          </mxGeometry>
        </mxCell>
        <mxCell id="DV5UVApOX6wPqdvzMXC9-35" value="tiene" style="shape=rhombus;perimeter=rhombusPerimeter;whiteSpace=wrap;html=1;align=center;" vertex="1" parent="1">
          <mxGeometry x="510" y="431" width="70" height="40" as="geometry" />
        </mxCell>
        <mxCell id="DV5UVApOX6wPqdvzMXC9-38" value="color" style="ellipse;whiteSpace=wrap;html=1;align=center;endArrow=none;endFill=0;fillColor=#d5e8d4;strokeColor=#82b366;" vertex="1" parent="1">
          <mxGeometry x="36" y="111" width="60" height="30" as="geometry" />
        </mxCell>
        <mxCell id="DV5UVApOX6wPqdvzMXC9-41" style="edgeStyle=orthogonalEdgeStyle;rounded=0;orthogonalLoop=1;jettySize=auto;html=1;entryX=0.5;entryY=1;entryDx=0;entryDy=0;exitX=0.5;exitY=0;exitDx=0;exitDy=0;" edge="1" parent="1" source="DV5UVApOX6wPqdvzMXC9-4" target="DV5UVApOX6wPqdvzMXC9-3">
          <mxGeometry relative="1" as="geometry">
            <mxPoint x="356" y="192" as="sourcePoint" />
            <mxPoint x="236" y="142" as="targetPoint" />
            <Array as="points">
              <mxPoint x="116" y="162" />
              <mxPoint x="226" y="162" />
            </Array>
          </mxGeometry>
        </mxCell>
        <mxCell id="DV5UVApOX6wPqdvzMXC9-42" value="rodado" style="ellipse;whiteSpace=wrap;html=1;align=center;endArrow=none;endFill=0;fillColor=#d5e8d4;strokeColor=#82b366;" vertex="1" parent="1">
          <mxGeometry x="4" y="148" width="60" height="30" as="geometry" />
        </mxCell>
        <mxCell id="DV5UVApOX6wPqdvzMXC9-43" value="estilo" style="ellipse;whiteSpace=wrap;html=1;align=center;endArrow=none;endFill=0;fillColor=#d5e8d4;strokeColor=#82b366;" vertex="1" parent="1">
          <mxGeometry x="7" y="196" width="60" height="30" as="geometry" />
        </mxCell>
        <mxCell id="DV5UVApOX6wPqdvzMXC9-49" value="ID_vehiculo" style="ellipse;whiteSpace=wrap;html=1;align=center;endArrow=none;endFill=0;fontStyle=4;fillColor=#f5f5f5;fontColor=#333333;strokeColor=#666666;" vertex="1" parent="1">
          <mxGeometry x="141" y="52" width="70" height="30" as="geometry" />
        </mxCell>
        <mxCell id="DV5UVApOX6wPqdvzMXC9-50" value="marca" style="ellipse;whiteSpace=wrap;html=1;align=center;endArrow=none;endFill=0;fillColor=#f5f5f5;fontColor=#333333;strokeColor=#666666;" vertex="1" parent="1">
          <mxGeometry x="241" y="52" width="60" height="30" as="geometry" />
        </mxCell>
        <mxCell id="DV5UVApOX6wPqdvzMXC9-53" value="matricula" style="ellipse;whiteSpace=wrap;html=1;align=center;endArrow=none;endFill=0;fillColor=#fff2cc;strokeColor=#d6b656;" vertex="1" parent="1">
          <mxGeometry x="136" y="222" width="60" height="30" as="geometry" />
        </mxCell>
        <mxCell id="DV5UVApOX6wPqdvzMXC9-54" value="color" style="ellipse;whiteSpace=wrap;html=1;align=center;endArrow=none;endFill=0;fillColor=#fff2cc;strokeColor=#d6b656;" vertex="1" parent="1">
          <mxGeometry x="251" y="222" width="60" height="30" as="geometry" />
        </mxCell>
        <mxCell id="DV5UVApOX6wPqdvzMXC9-60" style="edgeStyle=none;rounded=0;orthogonalLoop=1;jettySize=auto;html=1;exitX=1;exitY=0;exitDx=0;exitDy=0;endArrow=none;endFill=0;entryX=0.25;entryY=1;entryDx=0;entryDy=0;fillColor=#fff2cc;strokeColor=#d6b656;" edge="1" parent="1" source="DV5UVApOX6wPqdvzMXC9-55" target="DV5UVApOX6wPqdvzMXC9-5">
          <mxGeometry relative="1" as="geometry">
            <mxPoint x="211" y="230" as="targetPoint" />
          </mxGeometry>
        </mxCell>
        <mxCell id="DV5UVApOX6wPqdvzMXC9-55" value="modelo" style="ellipse;whiteSpace=wrap;html=1;align=center;endArrow=none;endFill=0;fillColor=#fff2cc;strokeColor=#d6b656;" vertex="1" parent="1">
          <mxGeometry x="151" y="252" width="60" height="30" as="geometry" />
        </mxCell>
        <mxCell id="DV5UVApOX6wPqdvzMXC9-56" value="cilindrada" style="ellipse;whiteSpace=wrap;html=1;align=center;endArrow=none;endFill=0;fillColor=#fff2cc;strokeColor=#d6b656;" vertex="1" parent="1">
          <mxGeometry x="231" y="252" width="60" height="30" as="geometry" />
        </mxCell>
        <mxCell id="DV5UVApOX6wPqdvzMXC9-61" value="potencia" style="ellipse;whiteSpace=wrap;html=1;align=center;endArrow=none;endFill=0;fillColor=#dae8fc;strokeColor=#6c8ebf;" vertex="1" parent="1">
          <mxGeometry x="381" y="140" width="60" height="30" as="geometry" />
        </mxCell>
        <mxCell id="DV5UVApOX6wPqdvzMXC9-62" value="autonomia" style="ellipse;whiteSpace=wrap;html=1;align=center;endArrow=none;endFill=0;fillColor=#dae8fc;strokeColor=#6c8ebf;" vertex="1" parent="1">
          <mxGeometry x="391" y="182" width="60" height="30" as="geometry" />
        </mxCell>
        <mxCell id="DV5UVApOX6wPqdvzMXC9-65" value="ubicación" style="ellipse;whiteSpace=wrap;html=1;align=center;endArrow=none;endFill=0;fillColor=#ffe6cc;strokeColor=#d79b00;" vertex="1" parent="1">
          <mxGeometry x="81" y="365" width="60" height="30" as="geometry" />
        </mxCell>
        <mxCell id="DV5UVApOX6wPqdvzMXC9-66" value="f_apertura" style="ellipse;whiteSpace=wrap;html=1;align=center;endArrow=none;endFill=0;fillColor=#ffe6cc;strokeColor=#d79b00;" vertex="1" parent="1">
          <mxGeometry x="81" y="410" width="60" height="30" as="geometry" />
        </mxCell>
        <mxCell id="DV5UVApOX6wPqdvzMXC9-67" value="f_cierre" style="ellipse;whiteSpace=wrap;html=1;align=center;endArrow=none;endFill=0;fillColor=#ffe6cc;strokeColor=#d79b00;" vertex="1" parent="1">
          <mxGeometry x="131" y="440" width="60" height="30" as="geometry" />
        </mxCell>
        <mxCell id="DV5UVApOX6wPqdvzMXC9-68" value="cupo_vehi" style="ellipse;whiteSpace=wrap;html=1;align=center;endArrow=none;endFill=0;fillColor=#ffe6cc;strokeColor=#d79b00;" vertex="1" parent="1">
          <mxGeometry x="201" y="450" width="60" height="30" as="geometry" />
        </mxCell>
        <mxCell id="DV5UVApOX6wPqdvzMXC9-69" value="ID_estación" style="ellipse;whiteSpace=wrap;html=1;align=center;endArrow=none;endFill=0;fontStyle=4;fillColor=#ffe6cc;strokeColor=#d79b00;" vertex="1" parent="1">
          <mxGeometry x="271" y="435" width="80" height="30" as="geometry" />
        </mxCell>
        <mxCell id="DV5UVApOX6wPqdvzMXC9-76" value="documento" style="ellipse;whiteSpace=wrap;html=1;align=center;endArrow=none;endFill=0;fontStyle=4;fillColor=#d5e8d4;strokeColor=#82b366;" vertex="1" parent="1">
          <mxGeometry x="490" y="82" width="70" height="30" as="geometry" />
        </mxCell>
        <mxCell id="DV5UVApOX6wPqdvzMXC9-77" value="nombre" style="ellipse;whiteSpace=wrap;html=1;align=center;endArrow=none;endFill=0;fillColor=#d5e8d4;strokeColor=#82b366;" vertex="1" parent="1">
          <mxGeometry x="590" y="82" width="60" height="30" as="geometry" />
        </mxCell>
        <mxCell id="DV5UVApOX6wPqdvzMXC9-79" value="edad" style="ellipse;whiteSpace=wrap;html=1;align=center;endArrow=none;endFill=0;dashed=1;fillColor=#d5e8d4;strokeColor=#82b366;" vertex="1" parent="1">
          <mxGeometry x="627" y="170" width="60" height="30" as="geometry" />
        </mxCell>
        <mxCell id="DV5UVApOX6wPqdvzMXC9-80" value="género" style="ellipse;whiteSpace=wrap;html=1;align=center;endArrow=none;endFill=0;fillColor=#d5e8d4;strokeColor=#82b366;" vertex="1" parent="1">
          <mxGeometry x="627" y="250" width="60" height="30" as="geometry" />
        </mxCell>
        <mxCell id="DV5UVApOX6wPqdvzMXC9-81" value="f_nacim" style="ellipse;whiteSpace=wrap;html=1;align=center;endArrow=none;endFill=0;fillColor=#d5e8d4;strokeColor=#82b366;" vertex="1" parent="1">
          <mxGeometry x="660" y="212" width="60" height="30" as="geometry" />
        </mxCell>
        <mxCell id="DV5UVApOX6wPqdvzMXC9-87" value="Edad sale de calcular&lt;br&gt;la fecha de nacimiento" style="text;html=1;align=center;verticalAlign=middle;resizable=0;points=[];autosize=1;strokeColor=none;fillColor=none;" vertex="1" parent="1">
          <mxGeometry x="687" y="165" width="140" height="40" as="geometry" />
        </mxCell>
        <mxCell id="DV5UVApOX6wPqdvzMXC9-88" value="est_origen" style="ellipse;whiteSpace=wrap;html=1;align=center;endArrow=none;endFill=0;fillColor=#f8cecc;strokeColor=#b85450;" vertex="1" parent="1">
          <mxGeometry x="650" y="330" width="70" height="30" as="geometry" />
        </mxCell>
        <mxCell id="DV5UVApOX6wPqdvzMXC9-89" value="est_destino" style="ellipse;whiteSpace=wrap;html=1;align=center;endArrow=none;endFill=0;fillColor=#f8cecc;strokeColor=#b85450;" vertex="1" parent="1">
          <mxGeometry x="672" y="360" width="70" height="30" as="geometry" />
        </mxCell>
        <mxCell id="DV5UVApOX6wPqdvzMXC9-96" style="edgeStyle=none;rounded=0;orthogonalLoop=1;jettySize=auto;html=1;exitX=0;exitY=0.5;exitDx=0;exitDy=0;entryX=1;entryY=0.5;entryDx=0;entryDy=0;endArrow=none;endFill=0;fillColor=#f8cecc;strokeColor=#b85450;" edge="1" parent="1" source="DV5UVApOX6wPqdvzMXC9-90" target="DV5UVApOX6wPqdvzMXC9-16">
          <mxGeometry relative="1" as="geometry" />
        </mxCell>
        <mxCell id="DV5UVApOX6wPqdvzMXC9-90" value="fecha" style="ellipse;whiteSpace=wrap;html=1;align=center;endArrow=none;endFill=0;fillColor=#f8cecc;strokeColor=#b85450;" vertex="1" parent="1">
          <mxGeometry x="690" y="390" width="60" height="30" as="geometry" />
        </mxCell>
        <mxCell id="DV5UVApOX6wPqdvzMXC9-97" style="edgeStyle=none;rounded=0;orthogonalLoop=1;jettySize=auto;html=1;exitX=0;exitY=0.5;exitDx=0;exitDy=0;endArrow=none;endFill=0;fillColor=#f8cecc;strokeColor=#b85450;" edge="1" parent="1" source="DV5UVApOX6wPqdvzMXC9-91">
          <mxGeometry relative="1" as="geometry">
            <mxPoint x="599.9999999999998" y="389.9999999999999" as="targetPoint" />
          </mxGeometry>
        </mxCell>
        <mxCell id="DV5UVApOX6wPqdvzMXC9-91" value="duración" style="ellipse;whiteSpace=wrap;html=1;align=center;endArrow=none;endFill=0;fillColor=#f8cecc;strokeColor=#b85450;" vertex="1" parent="1">
          <mxGeometry x="677" y="425" width="60" height="30" as="geometry" />
        </mxCell>
        <mxCell id="DV5UVApOX6wPqdvzMXC9-98" style="edgeStyle=none;rounded=0;orthogonalLoop=1;jettySize=auto;html=1;exitX=0.5;exitY=0;exitDx=0;exitDy=0;entryX=0.75;entryY=1;entryDx=0;entryDy=0;endArrow=none;endFill=0;fillColor=#f8cecc;strokeColor=#b85450;" edge="1" parent="1" source="DV5UVApOX6wPqdvzMXC9-93" target="DV5UVApOX6wPqdvzMXC9-16">
          <mxGeometry relative="1" as="geometry" />
        </mxCell>
        <mxCell id="DV5UVApOX6wPqdvzMXC9-93" value="ID_vehiculo" style="ellipse;whiteSpace=wrap;html=1;align=center;endArrow=none;endFill=0;fontStyle=0;fillColor=#f8cecc;strokeColor=#b85450;" vertex="1" parent="1">
          <mxGeometry x="580" y="470" width="70" height="30" as="geometry" />
        </mxCell>
        <mxCell id="DV5UVApOX6wPqdvzMXC9-104" style="edgeStyle=none;rounded=0;orthogonalLoop=1;jettySize=auto;html=1;exitX=0;exitY=0.5;exitDx=0;exitDy=0;entryX=1;entryY=0.75;entryDx=0;entryDy=0;endArrow=none;endFill=0;fillColor=#e1d5e7;strokeColor=#9673a6;" edge="1" parent="1" source="DV5UVApOX6wPqdvzMXC9-99" target="DV5UVApOX6wPqdvzMXC9-17">
          <mxGeometry relative="1" as="geometry" />
        </mxCell>
        <mxCell id="DV5UVApOX6wPqdvzMXC9-99" value="temp_max" style="ellipse;whiteSpace=wrap;html=1;align=center;endArrow=none;endFill=0;fillColor=#e1d5e7;strokeColor=#9673a6;" vertex="1" parent="1">
          <mxGeometry x="602" y="525" width="60" height="30" as="geometry" />
        </mxCell>
        <mxCell id="DV5UVApOX6wPqdvzMXC9-105" style="edgeStyle=none;rounded=0;orthogonalLoop=1;jettySize=auto;html=1;exitX=0.5;exitY=0;exitDx=0;exitDy=0;entryX=0.75;entryY=1;entryDx=0;entryDy=0;endArrow=none;endFill=0;fillColor=#e1d5e7;strokeColor=#9673a6;" edge="1" parent="1" source="DV5UVApOX6wPqdvzMXC9-100" target="DV5UVApOX6wPqdvzMXC9-17">
          <mxGeometry relative="1" as="geometry" />
        </mxCell>
        <mxCell id="DV5UVApOX6wPqdvzMXC9-100" value="temp_min" style="ellipse;whiteSpace=wrap;html=1;align=center;endArrow=none;endFill=0;fillColor=#e1d5e7;strokeColor=#9673a6;" vertex="1" parent="1">
          <mxGeometry x="555" y="562" width="60" height="30" as="geometry" />
        </mxCell>
        <mxCell id="DV5UVApOX6wPqdvzMXC9-106" style="edgeStyle=none;rounded=0;orthogonalLoop=1;jettySize=auto;html=1;exitX=0.5;exitY=0;exitDx=0;exitDy=0;entryX=0.5;entryY=1;entryDx=0;entryDy=0;endArrow=none;endFill=0;fillColor=#e1d5e7;strokeColor=#9673a6;" edge="1" parent="1" source="DV5UVApOX6wPqdvzMXC9-103" target="DV5UVApOX6wPqdvzMXC9-17">
          <mxGeometry relative="1" as="geometry" />
        </mxCell>
        <mxCell id="DV5UVApOX6wPqdvzMXC9-103" value="estado" style="ellipse;shape=doubleEllipse;margin=3;whiteSpace=wrap;html=1;align=center;endArrow=none;endFill=0;fillColor=#e1d5e7;strokeColor=#9673a6;" vertex="1" parent="1">
          <mxGeometry x="465" y="552" width="70" height="35" as="geometry" />
        </mxCell>
        <mxCell id="DV5UVApOX6wPqdvzMXC9-107" value="ID_viaje" style="ellipse;whiteSpace=wrap;html=1;align=center;endArrow=none;endFill=0;fontStyle=4;fillColor=#f8cecc;strokeColor=#b85450;" vertex="1" parent="1">
          <mxGeometry x="590" y="310" width="70" height="30" as="geometry" />
        </mxCell>
        <mxCell id="DV5UVApOX6wPqdvzMXC9-111" value="1" style="edgeStyle=none;rounded=0;orthogonalLoop=1;jettySize=auto;html=1;exitX=0;exitY=0.5;exitDx=0;exitDy=0;entryX=1;entryY=0.75;entryDx=0;entryDy=0;endArrow=none;endFill=0;" edge="1" parent="1" source="DV5UVApOX6wPqdvzMXC9-109" target="DV5UVApOX6wPqdvzMXC9-8">
          <mxGeometry x="0.7838" y="-2" relative="1" as="geometry">
            <mxPoint as="offset" />
          </mxGeometry>
        </mxCell>
        <mxCell id="DV5UVApOX6wPqdvzMXC9-120" style="edgeStyle=none;rounded=0;orthogonalLoop=1;jettySize=auto;html=1;exitX=0.5;exitY=1;exitDx=0;exitDy=0;entryX=0.5;entryY=0;entryDx=0;entryDy=0;endArrow=none;endFill=0;" edge="1" parent="1" source="DV5UVApOX6wPqdvzMXC9-109" target="DV5UVApOX6wPqdvzMXC9-117">
          <mxGeometry relative="1" as="geometry" />
        </mxCell>
        <mxCell id="DV5UVApOX6wPqdvzMXC9-109" value="registro" style="shape=rhombus;perimeter=rhombusPerimeter;whiteSpace=wrap;html=1;align=center;" vertex="1" parent="1">
          <mxGeometry x="391" y="395" width="70" height="40" as="geometry" />
        </mxCell>
        <mxCell id="DV5UVApOX6wPqdvzMXC9-121" style="edgeStyle=none;rounded=0;orthogonalLoop=1;jettySize=auto;html=1;exitX=0.5;exitY=0;exitDx=0;exitDy=0;entryX=0.5;entryY=1;entryDx=0;entryDy=0;endArrow=none;endFill=0;" edge="1" parent="1" source="DV5UVApOX6wPqdvzMXC9-116" target="DV5UVApOX6wPqdvzMXC9-109">
          <mxGeometry relative="1" as="geometry" />
        </mxCell>
        <mxCell id="DV5UVApOX6wPqdvzMXC9-116" value="FH_retiro" style="ellipse;whiteSpace=wrap;html=1;align=center;endArrow=none;endFill=0;" vertex="1" parent="1">
          <mxGeometry x="376" y="470" width="60" height="30" as="geometry" />
        </mxCell>
        <mxCell id="DV5UVApOX6wPqdvzMXC9-117" value="FH_devolu" style="ellipse;whiteSpace=wrap;html=1;align=center;endArrow=none;endFill=0;" vertex="1" parent="1">
          <mxGeometry x="431" y="450" width="66" height="30" as="geometry" />
        </mxCell>
        <mxCell id="DV5UVApOX6wPqdvzMXC9-118" value="tarifa" style="ellipse;whiteSpace=wrap;html=1;align=center;endArrow=none;endFill=0;dashed=1;fillColor=#f8cecc;strokeColor=#b85450;" vertex="1" parent="1">
          <mxGeometry x="650" y="455" width="60" height="30" as="geometry" />
        </mxCell>
        <mxCell id="DV5UVApOX6wPqdvzMXC9-122" value="Se asume que &lt;b&gt;TARIFA&amp;nbsp;&lt;/b&gt;se&amp;nbsp;&lt;br&gt;calcula a partir de Fecha y hora&lt;br&gt;de retiro y devolución" style="text;html=1;align=center;verticalAlign=middle;resizable=0;points=[];autosize=1;strokeColor=none;fillColor=none;" vertex="1" parent="1">
          <mxGeometry x="631" y="481" width="190" height="60" as="geometry" />
        </mxCell>
        <mxCell id="DV5UVApOX6wPqdvzMXC9-123" value="se entiende que un viaje&lt;br&gt;esta asociado a un vehiculo" style="text;html=1;align=center;verticalAlign=middle;resizable=0;points=[];autosize=1;strokeColor=none;fillColor=none;" vertex="1" parent="1">
          <mxGeometry x="345" y="300" width="170" height="40" as="geometry" />
        </mxCell>
        <mxCell id="DV5UVApOX6wPqdvzMXC9-124" value="Se entiende que el registro&lt;br&gt;de retiro y devulución del vehiculo&lt;br&gt;se relaciona a la persona a traves de un viaje" style="text;html=1;align=center;verticalAlign=middle;resizable=0;points=[];autosize=1;strokeColor=none;fillColor=none;" vertex="1" parent="1">
          <mxGeometry x="241" y="490" width="260" height="60" as="geometry" />
        </mxCell>
        <mxCell id="DV5UVApOX6wPqdvzMXC9-125" value="(T,E)" style="text;html=1;align=center;verticalAlign=middle;resizable=0;points=[];autosize=1;strokeColor=none;fillColor=none;" vertex="1" parent="1">
          <mxGeometry x="226" y="138" width="50" height="30" as="geometry" />
        </mxCell>
        <mxCell id="DV5UVApOX6wPqdvzMXC9-126" value="(P,S)" style="text;html=1;align=center;verticalAlign=middle;resizable=0;points=[];autosize=1;" vertex="1" parent="1">
          <mxGeometry x="520" y="168" width="50" height="30" as="geometry" />
        </mxCell>
        <mxCell id="DV5UVApOX6wPqdvzMXC9-129" value="Se asume el estado (del tiempo) como &lt;br&gt;multivaluado porque el tiempo puede cambiar" style="text;html=1;align=center;verticalAlign=middle;resizable=0;points=[];autosize=1;strokeColor=none;fillColor=none;" vertex="1" parent="1">
          <mxGeometry x="295" y="583" width="261" height="41" as="geometry" />
        </mxCell>
        <mxCell id="DV5UVApOX6wPqdvzMXC9-130" value="&lt;font color=&quot;#007fff&quot; style=&quot;font-size: 14px;&quot;&gt;MER - EMPRESA ALQUILER DE VEHICULOS&lt;/font&gt;" style="text;html=1;align=center;verticalAlign=middle;resizable=0;points=[];autosize=1;strokeColor=none;fillColor=none;fontStyle=1;fontSize=14;" vertex="1" parent="1">
          <mxGeometry x="292" y="43" width="314" height="29" as="geometry" />
        </mxCell>
      </root>
    </mxGraphModel>
  </diagram>
</mxfile>
